<?xml version="1.0" encoding="utf-8"?>
<!-- Generator: Adobe Illustrator 27.9.0, SVG Export Plug-In . SVG Version: 6.00 Build 0)  -->
<svg version="1.1" id="Ebene_2_00000106862058893354413420000012388222740052535962_"
	 xmlns="http://www.w3.org/2000/svg" xmlns:xlink="http://www.w3.org/1999/xlink" x="0px" y="0px" viewBox="0 0 726.3 432.1"
	 style="enable-background:new 0 0 726.3 432.1;" xml:space="preserve">
<style type="text/css">
	.st0{fill:#FF0000;}
</style>
<g id="Ebene_1-2">
	<g id="Ebene_2-2">
		<g id="Ebene_3">
			<path class="st0" d="M724.2,21.3c1.5,0.5,2.4,2.1,1.9,3.6c-0.1,0.3-0.2,0.6-0.4,0.8l-52.2,73.1c-0.5,0.8-1.4,1.2-2.3,1.2
				l-198.7,1.6c-1.5,0-2.9-0.3-4.2-1.1l-5.4-2.9c-1.4-0.8-1.9-2.5-1.2-3.9c0.1-0.1,0.1-0.2,0.2-0.3l53.3-72.1
				c0.5-0.7,1.4-1.2,2.3-1.2l198.9-0.8c0.9,0,1.8,0.1,2.6,0.4C719.1,19.6,724.2,21.3,724.2,21.3z"/>
			<path class="st0" d="M647.9,253.2c1.9,1.4,2.3,4,0.9,5.9c0,0,0,0,0,0l-54.5,73.2c-0.5,0.7-1.3,1-2.1,0.9
				c-5.1-0.5-23.5-7.8-56.5-76.4c-0.5-0.9-1.6-1.3-2.5-0.9c-0.3,0.1-0.5,0.3-0.7,0.5l-59,77.4c0,0-33.5,42-72.2-69.8
				c-0.2-0.6-0.9-1-1.5-0.8c-0.5,0.1-0.8,0.5-0.8,1l-10.5,84.3c-0.2,1.7-0.9,3.4-1.9,4.8l-57.2,76.8c-0.9,1.1-2.2,1.8-3.7,1.7
				c-5.5-0.3-19.2-3-31.6-22.2c-15.3-23.7-84.7-132.7-108.5-164c-1.1-1.5-3.2-1.8-4.7-0.6c-0.1,0-0.1,0.1-0.1,0.1
				c-12,10.3-62.4,50.9-101.9,39.8c-22.8-6.4-45.1-16.9-59.5-36.4C0.6,223.8-2.7,188.5,1.8,158.5c3-19.8,15.1-39.4,26.4-55.4
				c28.5-40.3,47.4-62.5,47.4-62.5s35.8-35.8,116.6,49.2c1,1,2.6,1.1,3.6,0.1c0.1-0.1,0.2-0.2,0.3-0.3l19-25.8
				c0.9-1.2,2.1-2.3,3.4-3L328.6,1.3c3-1.7,6.7-1.8,9.9-0.3l5.9,2.8c1.3,0.6,1.9,2.2,1.3,3.5c0,0,0,0.1-0.1,0.1
				c-7.9,14.7-50.1,92.2-95.9,150.5c-1,1.2-1.1,2.9-0.2,4.2L327.6,282c0.7,1.1,2.1,1.4,3.2,0.7c0.6-0.4,1-1,1-1.7l16.4-142.6
				c0.2-1.4,0.7-2.7,1.5-3.8L408.1,58c0.7-0.9,2-1.3,3.1-0.8l9.2,3.7c3,1.2,5.3,3.7,6.3,6.8c7.7,23.3,41.5,124.7,61.9,159.8
				c0.3,0.5,0.9,0.7,1.4,0.4c0.3-0.1,0.5-0.4,0.5-0.7l4.6-21.8c0.2-1.2,0.8-2.3,1.5-3.3l58.6-78.3c0.7-0.9,2-1.3,3.1-0.9l16.3,6.4
				c2.6,1,4.7,2.9,5.9,5.4c7.8,16.2,38.6,79.1,59.3,110.6C642,248.3,644.8,251.1,647.9,253.2L647.9,253.2z M265.3,97.3
				c0.3-0.7,0.1-1.5-0.6-1.8c-0.4-0.2-0.9-0.2-1.3,0l-44.7,23c-1.1,0.6-1.5,1.9-1,3c0.1,0.1,0.1,0.2,0.2,0.3l16.3,22.1
				c0.7,1,2.1,1.2,3.1,0.5c0.2-0.2,0.4-0.4,0.6-0.6C243.1,135.4,258.8,110,265.3,97.3z M149.1,204.7c1-0.1,1.8-1,1.7-2.1
				c0-0.2-0.1-0.4-0.1-0.5c-18.3-44.2-63.2-71.9-75.7-79c-0.9-0.5-2.1-0.2-2.6,0.7c-0.2,0.4-0.3,0.8-0.2,1.3
				C83.1,206.8,136.8,205.9,149.1,204.7z"/>
		</g>
	</g>
</g>
</svg>
